<svg t="1711542761011" class="icon" viewBox="0 0 1041 1024" version="1.1" xmlns="http://www.w3.org/2000/svg" p-id="3903" width="200" height="200"><path d="M706.130295 18.871061L297.431431 203.272019H102.452232A89.653865 89.653865 0 0 0 13.059558 292.664692v461.328883a89.653865 89.653865 0 0 0 89.392674 89.392674h194.979199l410.461905 165.660492a47.406195 47.406195 0 0 0 65.297789-43.945412V62.0329a47.406195 47.406195 0 0 0-67.06083-43.161839z" fill="#FFF100" p-id="3904"></path><path d="M71.827568 199.027662a89.784461 89.784461 0 0 0-58.76801 83.90766V744.3948a89.653865 89.653865 0 0 0 58.76801 83.842362z" fill="#FFFFFF" p-id="3905"></path><path d="M721.605872 17.303914l-13.516643 7.966331V999.709157l14.887896 7.770437c23.964289 12.602473 50.083405-10.317051 50.083405-43.945412V60.465753c0-34.346637-27.359774-57.331459-51.454658-43.161839z" fill="#F8B62D" p-id="3906"></path><path d="M459.957629 920.698832a13.059558 13.059558 0 0 1-4.897334-0.979467l-160.175478-64.644812H102.452232A102.582827 102.582827 0 0 1 0 752.426428V291.097546a102.582827 102.582827 0 0 1 102.452232-102.452232h192.171394L700.775877 5.354419a60.531051 60.531051 0 0 1 85.344211 55.111334V144.961093a13.059558 13.059558 0 1 1-26.119116 0V60.465753A34.411935 34.411935 0 0 0 711.745905 29.188112L300.369832 214.76443H102.452232A76.398414 76.398414 0 0 0 26.119116 291.097546v461.328882a76.398414 76.398414 0 0 0 76.333116 76.333116h197.525813l164.876918 66.538448a13.059558 13.059558 0 0 1-4.897334 25.204946zM773.06053 348.755494a13.059558 13.059558 0 0 1-13.059558-13.059558v-91.416906a13.059558 13.059558 0 1 1 26.119116 0v91.416906a13.059558 13.059558 0 0 1-13.059558 13.059558zM725.654335 1023.999935a60.792242 60.792242 0 0 1-22.658333-4.374952l-110.157371-44.467795a13.059558 13.059558 0 0 1 9.794668-24.22548l110.157371 44.467795a34.346637 34.346637 0 0 0 47.210302-31.865321V459.174056a13.059558 13.059558 0 0 1 26.119116 0v504.360126a60.400455 60.400455 0 0 1-60.465753 60.465753z" fill="#231815" p-id="3907"></path><path d="M962.554715 245.78088c40.615225 63.991834 65.88547 153.90689 65.885469 253.486018 0 115.51179-34.020148 217.964021-86.519571 282.151749" fill="#FFFFFF" p-id="3908"></path><path d="M941.920613 794.478205a13.059558 13.059558 0 0 1-10.121157-21.352377c52.238232-63.926536 83.581171-166.31347 83.58117-273.85893 0-94.094115-22.658333-181.593153-63.861238-246.499155a13.059558 13.059558 0 1 1 22.070653-13.973727c43.814817 68.954466 67.909701 161.481433 67.909701 260.472882 0 115.120003-32.648895 220.96772-89.457971 290.444568a13.059558 13.059558 0 0 1-10.121158 4.766739z" fill="#231815" p-id="3909"></path></svg>