<svg t="1711789529965" class="icon" viewBox="0 0 1024 1024" version="1.1" xmlns="http://www.w3.org/2000/svg" p-id="4572" width="200" height="200"><path d="M967.68 488.96c-7.68-10.24-204.8-268.8-455.68-268.8S66.56 476.16 56.32 488.96c-10.24 12.8-10.24 33.28 0 46.08 7.68 10.24 204.8 268.8 455.68 268.8s445.44-256 455.68-268.8c10.24-12.8 10.24-33.28 0-46.08zM512 727.04c-171.52 0-322.56-153.6-373.76-215.04 51.2-58.88 202.24-215.04 373.76-215.04 171.52 0 322.56 153.6 373.76 215.04-51.2 58.88-202.24 215.04-373.76 215.04z" fill="#797C7F" p-id="4573"></path><path d="M512 366.08c-81.92 0-148.48 66.56-148.48 145.92s66.56 145.92 148.48 145.92 145.92-66.56 145.92-145.92-64-145.92-145.92-145.92z m0 215.04c-38.4 0-71.68-30.72-71.68-69.12s30.72-69.12 71.68-69.12c38.4 0 69.12 30.72 69.12 69.12s-30.72 69.12-69.12 69.12z" fill="#797C7F" p-id="4574"></path></svg>