<svg t="1711644089309" class="icon" viewBox="0 0 1024 1024" version="1.1" xmlns="http://www.w3.org/2000/svg" p-id="4953" width="200" height="200"><path d="M704 810.666667H160V374.933333C160 274.133333 236.586667 192 330.666667 192h373.333333c94.08 0 170.666667 82.133333 170.666667 182.933333v252.8C874.666667 728.533333 798.08 810.666667 704 810.666667z m-522.666667-21.333334h522.666667c82.346667 0 149.333333-72.533333 149.333333-161.6v-252.8C853.333333 285.866667 786.346667 213.333333 704 213.333333H330.666667c-82.346667 0-149.333333 72.533333-149.333334 161.6z" fill="#4D4D4D" p-id="4954"></path><path d="M522.666667 501.333333m-42.666667 0a42.666667 42.666667 0 1 0 85.333333 0 42.666667 42.666667 0 1 0-85.333333 0Z" fill="#00A99D" p-id="4955"></path><path d="M352 501.333333m-42.666667 0a42.666667 42.666667 0 1 0 85.333334 0 42.666667 42.666667 0 1 0-85.333334 0Z" fill="#00A99D" p-id="4956"></path><path d="M693.333333 501.333333m-42.666666 0a42.666667 42.666667 0 1 0 85.333333 0 42.666667 42.666667 0 1 0-85.333333 0Z" fill="#00A99D" p-id="4957"></path></svg>